<svg width="203" height="48" viewBox="0 0 203 48" fill="none" xmlns="http://www.w3.org/2000/svg">
<path d="M45.5056 36.3478C42.3439 36.3478 40.1939 35.473 39.0556 33.7235C37.9385 31.974 37.3799 29.0968 37.3799 25.0919C37.3799 21.087 37.949 18.2414 39.0872 16.5551C40.2255 14.8478 42.3649 13.9941 45.5056 13.9941C47.3816 13.9941 49.4473 14.2576 51.7027 14.7846L51.5762 17.6301C49.6792 17.2929 47.7821 17.1243 45.885 17.1243C43.988 17.1243 42.7022 17.6934 42.0277 18.8316C41.3532 19.9488 41.0159 22.0672 41.0159 25.1868C41.0159 28.2853 41.3426 30.4037 41.9961 31.5419C42.6495 32.6591 43.9247 33.2176 45.8218 33.2176C47.7189 33.2176 49.637 33.0596 51.5762 32.7434L51.6711 35.6522C49.5 36.1159 47.4448 36.3478 45.5056 36.3478ZM66.7193 25.0603V32.2691C66.7404 32.7328 66.8564 33.0806 67.0671 33.3125C67.299 33.5233 67.6468 33.6603 68.1105 33.7235L68.0157 36.3478C66.2029 36.3478 64.8012 35.9578 63.8105 35.1779C62.1242 35.9578 60.4274 36.3478 58.7201 36.3478C55.5794 36.3478 54.009 34.6721 54.009 31.3206C54.009 29.7186 54.4306 28.5593 55.2738 27.8426C56.138 27.126 57.4554 26.6939 59.226 26.5463L63.3046 26.1985V25.0603C63.3046 24.2172 63.1149 23.627 62.7355 23.2897C62.3772 22.9525 61.8397 22.7838 61.123 22.7838C59.774 22.7838 58.0877 22.8681 56.0642 23.0368L55.0524 23.1L54.926 20.6654C57.2235 20.1174 59.3314 19.8434 61.2495 19.8434C63.1887 19.8434 64.5799 20.2649 65.423 21.1081C66.2872 21.9301 66.7193 23.2475 66.7193 25.0603ZM59.637 28.9809C58.1826 29.1074 57.4554 29.8978 57.4554 31.3522C57.4554 32.8066 58.0983 33.5338 59.384 33.5338C60.438 33.5338 61.5551 33.3652 62.7355 33.0279L63.3046 32.8382V28.6331L59.637 28.9809ZM71.0458 36V20.1912H74.4605V22.0882C76.2521 20.9289 78.0438 20.1806 79.8355 19.8434V23.2897C78.0227 23.648 76.4735 24.1118 75.1877 24.6809L74.4921 24.9654V36H71.0458ZM89.837 19.8434C92.0081 19.8434 93.5679 20.4547 94.5164 21.6772C95.4861 22.8787 95.9709 25.0181 95.9709 28.0956C95.9709 31.173 95.4017 33.323 94.2635 34.5456C93.1253 35.7471 91.1228 36.3478 88.2561 36.3478C87.2655 36.3478 85.6951 36.2529 83.5451 36.0632L82.4701 35.9684V13.6147H85.8848V20.7919C87.3392 20.1596 88.6566 19.8434 89.837 19.8434ZM88.2561 33.2809C89.9424 33.2809 91.0596 32.8909 91.6076 32.111C92.1767 31.31 92.4613 29.961 92.4613 28.064C92.4613 26.1669 92.2189 24.839 91.7341 24.0801C91.2704 23.3002 90.501 22.9103 89.426 22.9103C88.4142 22.9103 87.4025 23.0684 86.3907 23.3846L85.8848 23.5426V33.1544C87.0441 33.2387 87.8346 33.2809 88.2561 33.2809ZM100.275 21.8985C101.371 20.5284 103.184 19.8434 105.713 19.8434C108.243 19.8434 110.045 20.5284 111.12 21.8985C112.216 23.2686 112.764 25.3238 112.764 28.064C112.764 30.8042 112.237 32.8699 111.183 34.261C110.129 35.6522 108.306 36.3478 105.713 36.3478C103.121 36.3478 101.297 35.6522 100.243 34.261C99.1895 32.8699 98.6626 30.8042 98.6626 28.064C98.6626 25.3238 99.2001 23.2686 100.275 21.8985ZM102.868 32.1743C103.353 33.0174 104.301 33.439 105.713 33.439C107.126 33.439 108.074 33.0174 108.559 32.1743C109.044 31.3311 109.286 29.9505 109.286 28.0324C109.286 26.1142 109.023 24.7547 108.496 23.9537C107.99 23.1527 107.062 22.7522 105.713 22.7522C104.364 22.7522 103.426 23.1527 102.899 23.9537C102.393 24.7547 102.14 26.1142 102.14 28.0324C102.14 29.9505 102.383 31.3311 102.868 32.1743ZM119.634 36H116.187V20.1912H119.602V21.1713C121.141 20.286 122.595 19.8434 123.965 19.8434C126.073 19.8434 127.506 20.4441 128.265 21.6456C129.045 22.826 129.435 24.7863 129.435 27.5265V36H126.02V27.6213C126.02 25.914 125.831 24.702 125.451 23.9853C125.093 23.2686 124.345 22.9103 123.206 22.9103C122.131 22.9103 121.099 23.1211 120.108 23.5426L119.634 23.7324V36ZM129.209 17.4721V14.3419H145.018V17.4721H138.916V36H135.374V17.4721H129.209ZM145.397 36V20.1912H148.811V22.0882C150.603 20.9289 152.395 20.1806 154.186 19.8434V23.2897C152.374 23.648 150.824 24.1118 149.539 24.6809L148.843 24.9654V36H145.397ZM168.52 25.0603V32.2691C168.541 32.7328 168.657 33.0806 168.867 33.3125C169.099 33.5233 169.447 33.6603 169.911 33.7235L169.816 36.3478C168.003 36.3478 166.601 35.9578 165.611 35.1779C163.924 35.9578 162.228 36.3478 160.52 36.3478C157.38 36.3478 155.809 34.6721 155.809 31.3206C155.809 29.7186 156.231 28.5593 157.074 27.8426C157.938 27.126 159.256 26.6939 161.026 26.5463L165.105 26.1985V25.0603C165.105 24.2172 164.915 23.627 164.536 23.2897C164.177 22.9525 163.64 22.7838 162.923 22.7838C161.574 22.7838 159.888 22.8681 157.864 23.0368L156.853 23.1L156.726 20.6654C159.024 20.1174 161.132 19.8434 163.05 19.8434C164.989 19.8434 166.38 20.2649 167.223 21.1081C168.087 21.9301 168.52 23.2475 168.52 25.0603ZM161.437 28.9809C159.983 29.1074 159.256 29.8978 159.256 31.3522C159.256 32.8066 159.898 33.5338 161.184 33.5338C162.238 33.5338 163.355 33.3652 164.536 33.0279L165.105 32.8382V28.6331L161.437 28.9809ZM176.292 36H172.846V13.6147H176.292V26.5463L178.253 26.3566L181.983 20.1912H185.841L181.288 27.5897L186.094 36H182.205L178.347 29.3287L176.292 29.55V36ZM192.07 36H188.624V13.6147H192.07V26.5463L194.031 26.3566L197.761 20.1912H201.619L197.066 27.5897L201.872 36H197.983L194.125 29.3287L192.07 29.55V36Z" fill="#222222"/>
<path d="M11.3269 10.8343C11.3269 9.85644 12.1197 9.06372 13.0975 9.06372H16.6387C17.6166 9.06372 18.4093 9.85644 18.4093 10.8343V18.2476L25.116 14.3755C25.9628 13.8866 27.0457 14.1767 27.5347 15.0236L29.3052 18.0903C29.7942 18.9372 29.504 20.02 28.6572 20.509L18.4242 26.417L21.3538 31.4912H27.8524C28.8303 31.4912 29.623 32.2839 29.623 33.2618V36.8029C29.623 37.7808 28.8303 38.5735 27.8524 38.5735H13.0975L13.0954 38.5735H1.88381C0.90594 38.5735 0.11322 37.7808 0.11322 36.8029L0.11322 33.2618C0.11322 32.2839 0.90594 31.4912 1.88381 31.4912H8.23491L11.1682 26.4106L1.05641 20.5725C0.209547 20.0836 -0.0806089 19.0007 0.408325 18.1539L2.17891 15.0871C2.66785 14.2403 3.75072 13.9501 4.59758 14.439L11.3269 18.3242V10.8343Z" fill="#04DF1A"/>
</svg>
