<svg width="215" height="51" viewBox="0 0 215 51" fill="none" xmlns="http://www.w3.org/2000/svg">
<path d="M48.2294 38.3695C44.87 38.3695 42.5857 37.4401 41.3763 35.5812C40.1893 33.7224 39.5958 30.6654 39.5958 26.4102C39.5958 22.1549 40.2005 19.1315 41.4099 17.3398C42.6193 15.5258 44.8924 14.6187 48.2294 14.6187C50.2227 14.6187 52.4174 14.8987 54.8138 15.4586L54.6794 18.482C52.6638 18.1237 50.6482 17.9445 48.6325 17.9445C46.6169 17.9445 45.2508 18.5492 44.5341 19.7586C43.8174 20.9456 43.4591 23.1964 43.4591 26.5109C43.4591 29.8031 43.8062 32.0539 44.5005 33.2633C45.1948 34.4503 46.5497 35.0437 48.5654 35.0437C50.581 35.0437 52.619 34.8758 54.6794 34.5398L54.7802 37.6305C52.4734 38.1232 50.2898 38.3695 48.2294 38.3695ZM70.769 26.3766V34.0359C70.7914 34.5286 70.9146 34.8982 71.1385 35.1445C71.3849 35.3685 71.7544 35.5141 72.2471 35.5812L72.1463 38.3695C70.2203 38.3695 68.731 37.9552 67.6784 37.1266C65.8867 37.9552 64.0838 38.3695 62.2698 38.3695C58.9328 38.3695 57.2643 36.5891 57.2643 33.0281C57.2643 31.326 57.7122 30.0943 58.6081 29.3328C59.5263 28.5714 60.926 28.1122 62.8073 27.9555L67.1409 27.5859V26.3766C67.1409 25.4807 66.9393 24.8536 66.5362 24.4953C66.1554 24.137 65.5844 23.9578 64.8229 23.9578C63.3896 23.9578 61.5979 24.0474 59.4479 24.2266L58.3729 24.2937L58.2385 21.707C60.6797 21.1247 62.9193 20.8336 64.9573 20.8336C67.0177 20.8336 68.4958 21.2815 69.3916 22.1773C70.3099 23.0508 70.769 24.4505 70.769 26.3766ZM63.244 30.5422C61.6987 30.6766 60.926 31.5164 60.926 33.0617C60.926 34.607 61.6091 35.3797 62.9752 35.3797C64.095 35.3797 65.282 35.2005 66.5362 34.8422L67.1409 34.6406V30.1727L63.244 30.5422ZM75.3658 38V21.2031H78.9939V23.2187C80.8976 21.987 82.8012 21.1919 84.7049 20.8336V24.4953C82.7788 24.876 81.1328 25.3687 79.7666 25.9734L79.0275 26.2758V38H75.3658ZM95.3315 20.8336C97.6383 20.8336 99.2956 21.4831 100.303 22.782C101.334 24.0586 101.849 26.3318 101.849 29.6016C101.849 32.8714 101.244 35.1557 100.035 36.4547C98.8253 37.7312 96.6977 38.3695 93.6518 38.3695C92.5992 38.3695 90.9308 38.2688 88.6464 38.0672L87.5042 37.9664V14.2156H91.1323V21.8414C92.6776 21.1695 94.0774 20.8336 95.3315 20.8336ZM93.6518 35.1109C95.4435 35.1109 96.6305 34.6966 97.2128 33.868C97.8175 33.0169 98.1198 31.5836 98.1198 29.568C98.1198 27.5523 97.8623 26.1414 97.3472 25.3352C96.8545 24.5065 96.037 24.0922 94.8948 24.0922C93.8198 24.0922 92.7448 24.2602 91.6698 24.5961L91.1323 24.7641V34.9766C92.3641 35.0661 93.2039 35.1109 93.6518 35.1109ZM106.422 23.0172C107.587 21.5615 109.513 20.8336 112.2 20.8336C114.888 20.8336 116.802 21.5615 117.945 23.0172C119.109 24.4729 119.691 26.6565 119.691 29.568C119.691 32.4794 119.132 34.6742 118.012 36.1523C116.892 37.6305 114.955 38.3695 112.2 38.3695C109.445 38.3695 107.508 37.6305 106.388 36.1523C105.269 34.6742 104.709 32.4794 104.709 29.568C104.709 26.6565 105.28 24.4729 106.422 23.0172ZM109.177 33.9352C109.692 34.831 110.7 35.2789 112.2 35.2789C113.701 35.2789 114.708 34.831 115.223 33.9352C115.739 33.0393 115.996 31.5724 115.996 29.5344C115.996 27.4964 115.716 26.0518 115.156 25.2008C114.619 24.3497 113.633 23.9242 112.2 23.9242C110.767 23.9242 109.77 24.3497 109.21 25.2008C108.673 26.0518 108.404 27.4964 108.404 29.5344C108.404 31.5724 108.662 33.0393 109.177 33.9352ZM126.99 38H123.329V21.2031H126.957V22.2445C128.592 21.3039 130.137 20.8336 131.593 20.8336C133.832 20.8336 135.355 21.4719 136.162 22.7484C136.99 24.0026 137.405 26.0854 137.405 28.9969V38H133.776V29.0977C133.776 27.2836 133.575 25.9958 133.172 25.2344C132.791 24.4729 131.996 24.0922 130.787 24.0922C129.644 24.0922 128.547 24.3161 127.494 24.7641L126.99 24.9656V38ZM137.164 18.3141V14.9883H153.961V18.3141H147.477V38H143.715V18.3141H137.164ZM154.364 38V21.2031H157.992V23.2187C159.895 21.987 161.799 21.1919 163.703 20.8336V24.4953C161.777 24.876 160.131 25.3687 158.764 25.9734L158.025 26.2758V38H154.364ZM178.932 26.3766V34.0359C178.954 34.5286 179.077 34.8982 179.301 35.1445C179.548 35.3685 179.917 35.5141 180.41 35.5812L180.309 38.3695C178.383 38.3695 176.894 37.9552 175.841 37.1266C174.049 37.9552 172.247 38.3695 170.432 38.3695C167.095 38.3695 165.427 36.5891 165.427 33.0281C165.427 31.326 165.875 30.0943 166.771 29.3328C167.689 28.5714 169.089 28.1122 170.97 27.9555L175.304 27.5859V26.3766C175.304 25.4807 175.102 24.8536 174.699 24.4953C174.318 24.137 173.747 23.9578 172.986 23.9578C171.552 23.9578 169.761 24.0474 167.611 24.2266L166.536 24.2937L166.401 21.707C168.842 21.1247 171.082 20.8336 173.12 20.8336C175.18 20.8336 176.659 21.2815 177.554 22.1773C178.473 23.0508 178.932 24.4505 178.932 26.3766ZM171.407 30.5422C169.861 30.6766 169.089 31.5164 169.089 33.0617C169.089 34.607 169.772 35.3797 171.138 35.3797C172.258 35.3797 173.445 35.2005 174.699 34.8422L175.304 34.6406V30.1727L171.407 30.5422ZM187.19 38H183.529V14.2156H187.19V27.9555L189.273 27.7539L193.237 21.2031H197.336L192.498 29.0641L197.604 38H193.472L189.374 30.9117L187.19 31.1469V38ZM203.954 38H200.293V14.2156H203.954V27.9555L206.037 27.7539L210.001 21.2031H214.1L209.262 29.0641L214.368 38H210.236L206.138 30.9117L203.954 31.1469V38Z" fill="white"/>
<path d="M11.9146 11.5115C11.9146 10.4725 12.7568 9.6302 13.7958 9.6302H17.5583C18.5973 9.6302 19.4396 10.4725 19.4396 11.5115V19.3881L26.5654 15.274C27.4652 14.7545 28.6158 15.0628 29.1353 15.9625L31.0165 19.221C31.536 20.1207 31.2277 21.2713 30.3279 21.7908L19.4554 28.068L22.5681 33.4594H29.4729C30.5119 33.4594 31.3542 34.3016 31.3542 35.3406V39.1031C31.3542 40.1421 30.5119 40.9844 29.4729 40.9844H13.7958L13.7935 40.9844H1.88125C0.842264 40.9844 -4.67213e-08 40.1421 0 39.1031L1.58853e-07 35.3406C2.05574e-07 34.3016 0.842265 33.4594 1.88125 33.4594H8.6293L11.7459 28.0612L1.00214 21.8583C0.102347 21.3388 -0.205943 20.1883 0.313549 19.2885L2.1948 16.0301C2.71429 15.1303 3.86485 14.822 4.76463 15.3415L11.9146 19.4695V11.5115Z" fill="#04DF1A"/>
</svg>
