<svg width="203" height="81" viewBox="0 0 203 81" fill="none" xmlns="http://www.w3.org/2000/svg">
<g opacity="0.5">
<path d="M45.3924 36.3478C42.2306 36.3478 40.0806 35.473 38.9424 33.7235C37.8253 31.974 37.2667 29.0968 37.2667 25.0919C37.2667 21.087 37.8358 18.2414 38.974 16.5551C40.1123 14.8478 42.2517 13.9941 45.3924 13.9941C47.2684 13.9941 49.3341 14.2576 51.5895 14.7846L51.463 17.6301C49.5659 17.2929 47.6689 17.1243 45.7718 17.1243C43.8748 17.1243 42.589 17.6934 41.9145 18.8316C41.24 19.9488 40.9027 22.0672 40.9027 25.1868C40.9027 28.2853 41.2294 30.4037 41.8829 31.5419C42.5363 32.6591 43.8115 33.2176 45.7086 33.2176C47.6056 33.2176 49.5238 33.0596 51.463 32.7434L51.5579 35.6522C49.3868 36.1159 47.3316 36.3478 45.3924 36.3478ZM66.6061 25.0603V32.2691C66.6272 32.7328 66.7431 33.0806 66.9539 33.3125C67.1858 33.5233 67.5336 33.6603 67.9973 33.7235L67.9024 36.3478C66.0897 36.3478 64.688 35.9578 63.6973 35.1779C62.011 35.9578 60.3142 36.3478 58.6069 36.3478C55.4662 36.3478 53.8958 34.6721 53.8958 31.3206C53.8958 29.7186 54.3174 28.5593 55.1605 27.8426C56.0248 27.126 57.3422 26.6939 59.1127 26.5463L63.1914 26.1985V25.0603C63.1914 24.2172 63.0017 23.627 62.6223 23.2897C62.264 22.9525 61.7265 22.7838 61.0098 22.7838C59.6608 22.7838 57.9745 22.8681 55.951 23.0368L54.9392 23.1L54.8127 20.6654C57.1103 20.1174 59.2181 19.8434 61.1363 19.8434C63.0755 19.8434 64.4667 20.2649 65.3098 21.1081C66.174 21.9301 66.6061 23.2475 66.6061 25.0603ZM59.5238 28.9809C58.0694 29.1074 57.3422 29.8978 57.3422 31.3522C57.3422 32.8066 57.985 33.5338 59.2708 33.5338C60.3248 33.5338 61.4419 33.3652 62.6223 33.0279L63.1914 32.8382V28.6331L59.5238 28.9809ZM70.9326 36V20.1912H74.3473V22.0882C76.1389 20.9289 77.9306 20.1806 79.7223 19.8434V23.2897C77.9095 23.648 76.3602 24.1118 75.0745 24.6809L74.3789 24.9654V36H70.9326ZM89.7238 19.8434C91.8949 19.8434 93.4547 20.4547 94.4032 21.6772C95.3728 22.8787 95.8576 25.0181 95.8576 28.0956C95.8576 31.173 95.2885 33.323 94.1503 34.5456C93.012 35.7471 91.0096 36.3478 88.1429 36.3478C87.1522 36.3478 85.5819 36.2529 83.4319 36.0632L82.3569 35.9684V13.6147H85.7716V20.7919C87.226 20.1596 88.5434 19.8434 89.7238 19.8434ZM88.1429 33.2809C89.8292 33.2809 90.9464 32.8909 91.4944 32.111C92.0635 31.31 92.3481 29.961 92.3481 28.064C92.3481 26.1669 92.1057 24.839 91.6209 24.0801C91.1571 23.3002 90.3878 22.9103 89.3128 22.9103C88.301 22.9103 87.2893 23.0684 86.2775 23.3846L85.7716 23.5426V33.1544C86.9309 33.2387 87.7214 33.2809 88.1429 33.2809ZM100.162 21.8985C101.258 20.5284 103.071 19.8434 105.6 19.8434C108.129 19.8434 109.932 20.5284 111.007 21.8985C112.103 23.2686 112.651 25.3238 112.651 28.064C112.651 30.8042 112.124 32.8699 111.07 34.261C110.016 35.6522 108.193 36.3478 105.6 36.3478C103.007 36.3478 101.184 35.6522 100.13 34.261C99.0763 32.8699 98.5493 30.8042 98.5493 28.064C98.5493 25.3238 99.0868 23.2686 100.162 21.8985ZM102.754 32.1743C103.239 33.0174 104.188 33.439 105.6 33.439C107.012 33.439 107.961 33.0174 108.446 32.1743C108.93 31.3311 109.173 29.9505 109.173 28.0324C109.173 26.1142 108.909 24.7547 108.382 23.9537C107.877 23.1527 106.949 22.7522 105.6 22.7522C104.251 22.7522 103.313 23.1527 102.786 23.9537C102.28 24.7547 102.027 26.1142 102.027 28.0324C102.027 29.9505 102.27 31.3311 102.754 32.1743ZM119.52 36H116.074V20.1912H119.489V21.1713C121.028 20.286 122.482 19.8434 123.852 19.8434C125.96 19.8434 127.393 20.4441 128.152 21.6456C128.932 22.826 129.322 24.7863 129.322 27.5265V36H125.907V27.6213C125.907 25.914 125.718 24.702 125.338 23.9853C124.98 23.2686 124.232 22.9103 123.093 22.9103C122.018 22.9103 120.985 23.1211 119.995 23.5426L119.52 23.7324V36ZM129.096 17.4721V14.3419H144.905V17.4721H138.802V36H135.261V17.4721H129.096ZM145.283 36V20.1912H148.698V22.0882C150.49 20.9289 152.281 20.1806 154.073 19.8434V23.2897C152.26 23.648 150.711 24.1118 149.425 24.6809L148.73 24.9654V36H145.283ZM168.406 25.0603V32.2691C168.427 32.7328 168.543 33.0806 168.754 33.3125C168.986 33.5233 169.334 33.6603 169.797 33.7235L169.703 36.3478C167.89 36.3478 166.488 35.9578 165.497 35.1779C163.811 35.9578 162.114 36.3478 160.407 36.3478C157.266 36.3478 155.696 34.6721 155.696 31.3206C155.696 29.7186 156.118 28.5593 156.961 27.8426C157.825 27.126 159.142 26.6939 160.913 26.5463L164.992 26.1985V25.0603C164.992 24.2172 164.802 23.627 164.422 23.2897C164.064 22.9525 163.527 22.7838 162.81 22.7838C161.461 22.7838 159.775 22.8681 157.751 23.0368L156.739 23.1L156.613 20.6654C158.91 20.1174 161.018 19.8434 162.936 19.8434C164.876 19.8434 166.267 20.2649 167.11 21.1081C167.974 21.9301 168.406 23.2475 168.406 25.0603ZM161.324 28.9809C159.87 29.1074 159.142 29.8978 159.142 31.3522C159.142 32.8066 159.785 33.5338 161.071 33.5338C162.125 33.5338 163.242 33.3652 164.422 33.0279L164.992 32.8382V28.6331L161.324 28.9809ZM176.179 36H172.733V13.6147H176.179V26.5463L178.139 26.3566L181.87 20.1912H185.728L181.175 27.5897L185.981 36H182.092L178.234 29.3287L176.179 29.55V36ZM191.957 36H188.511V13.6147H191.957V26.5463L193.917 26.3566L197.648 20.1912H201.506L196.953 27.5897L201.758 36H197.87L194.012 29.3287L191.957 29.55V36Z" fill="#222222"/>
<path d="M11.2137 10.8343C11.2137 9.85644 12.0064 9.06372 12.9843 9.06372H16.5255C17.5034 9.06372 18.2961 9.85644 18.2961 10.8343V18.2476L25.0028 14.3755C25.8496 13.8866 26.9325 14.1767 27.4214 15.0236L29.192 18.0903C29.681 18.9372 29.3908 20.02 28.5439 20.509L18.311 26.417L21.2406 31.4912H27.7392C28.7171 31.4912 29.5098 32.2839 29.5098 33.2618V36.8029C29.5098 37.7808 28.7171 38.5735 27.7392 38.5735H12.9843L12.9822 38.5735H1.77059C0.792719 38.5735 -4.3973e-08 37.7808 0 36.8029L1.49508e-07 33.2618C1.93481e-07 32.2839 0.79272 31.4912 1.77059 31.4912H8.12169L11.055 26.4106L0.943186 20.5725C0.0963267 20.0836 -0.193829 19.0007 0.295105 18.1539L2.06569 15.0871C2.55463 14.2403 3.6375 13.9501 4.48436 14.439L11.2137 18.3242V10.8343Z" fill="#222222"/>
<path d="M60.5215 63.3636V75H58.6465L53.1636 67.0739H53.067V75H50.959V63.3636H52.8454L58.3226 71.2955H58.4249V63.3636H60.5215ZM66.5343 75.1705C65.682 75.1705 64.9434 74.983 64.3184 74.608C63.6934 74.233 63.2085 73.7083 62.8638 73.0341C62.5229 72.3598 62.3525 71.572 62.3525 70.6705C62.3525 69.7689 62.5229 68.9792 62.8638 68.3011C63.2085 67.6231 63.6934 67.0966 64.3184 66.7216C64.9434 66.3466 65.682 66.1591 66.5343 66.1591C67.3866 66.1591 68.1252 66.3466 68.7502 66.7216C69.3752 67.0966 69.8582 67.6231 70.1991 68.3011C70.5438 68.9792 70.7161 69.7689 70.7161 70.6705C70.7161 71.572 70.5438 72.3598 70.1991 73.0341C69.8582 73.7083 69.3752 74.233 68.7502 74.608C68.1252 74.983 67.3866 75.1705 66.5343 75.1705ZM66.5457 73.5227C67.0078 73.5227 67.3941 73.3958 67.7047 73.142C68.0154 72.8845 68.2464 72.5398 68.3979 72.108C68.5532 71.6761 68.6309 71.1951 68.6309 70.6648C68.6309 70.1307 68.5532 69.6477 68.3979 69.2159C68.2464 68.7803 68.0154 68.4337 67.7047 68.1761C67.3941 67.9186 67.0078 67.7898 66.5457 67.7898C66.0722 67.7898 65.6782 67.9186 65.3638 68.1761C65.0532 68.4337 64.8203 68.7803 64.665 69.2159C64.5135 69.6477 64.4377 70.1307 64.4377 70.6648C64.4377 71.1951 64.5135 71.6761 64.665 72.108C64.8203 72.5398 65.0532 72.8845 65.3638 73.142C65.6782 73.3958 66.0722 73.5227 66.5457 73.5227ZM80.4647 75H76.5215V63.3636H80.5442C81.6995 63.3636 82.692 63.5966 83.5215 64.0625C84.3548 64.5246 84.995 65.1894 85.442 66.0568C85.8889 66.9242 86.1124 67.9621 86.1124 69.1705C86.1124 70.3826 85.887 71.4242 85.4363 72.2955C84.9893 73.1667 84.3435 73.8352 83.4988 74.3011C82.6579 74.767 81.6465 75 80.4647 75ZM78.6295 73.1761H80.3624C81.173 73.1761 81.8492 73.0284 82.3908 72.733C82.9325 72.4337 83.3397 71.9886 83.6124 71.3977C83.8851 70.803 84.0215 70.0606 84.0215 69.1705C84.0215 68.2803 83.8851 67.5417 83.6124 66.9545C83.3397 66.3636 82.9363 65.9223 82.4022 65.6307C81.8719 65.3352 81.2128 65.1875 80.4249 65.1875H78.6295V73.1761ZM90.5357 75.1761C89.9827 75.1761 89.4846 75.0777 89.0414 74.8807C88.602 74.6799 88.2535 74.3845 87.9959 73.9943C87.7422 73.6042 87.6153 73.1231 87.6153 72.5511C87.6153 72.0587 87.7062 71.6515 87.888 71.3295C88.0698 71.0076 88.3179 70.75 88.6323 70.5568C88.9467 70.3636 89.3009 70.2178 89.6948 70.1193C90.0925 70.017 90.5035 69.9432 90.9278 69.8977C91.4391 69.8447 91.8539 69.7973 92.1721 69.7557C92.4903 69.7102 92.7213 69.642 92.8653 69.5511C93.013 69.4564 93.0868 69.3106 93.0868 69.1136V69.0795C93.0868 68.6515 92.96 68.3201 92.7062 68.0852C92.4524 67.8504 92.0868 67.733 91.6096 67.733C91.1058 67.733 90.7062 67.8428 90.4107 68.0625C90.119 68.2822 89.9221 68.5417 89.8198 68.8409L87.8993 68.5682C88.0509 68.0379 88.3009 67.5947 88.6493 67.2386C88.9978 66.8788 89.424 66.6098 89.9278 66.4318C90.4315 66.25 90.9884 66.1591 91.5982 66.1591C92.0187 66.1591 92.4372 66.2083 92.8539 66.3068C93.2706 66.4053 93.6512 66.5682 93.9959 66.7955C94.3406 67.0189 94.6172 67.3239 94.8255 67.7102C95.0376 68.0966 95.1437 68.5795 95.1437 69.1591V75H93.1664V73.8011H93.0982C92.9732 74.0436 92.7971 74.2708 92.5698 74.483C92.3463 74.6913 92.0641 74.8598 91.7232 74.9886C91.3861 75.1136 90.9903 75.1761 90.5357 75.1761ZM91.0698 73.6648C91.4827 73.6648 91.8406 73.5833 92.1437 73.4205C92.4467 73.2538 92.6797 73.0341 92.8425 72.7614C93.0092 72.4886 93.0925 72.1913 93.0925 71.8693V70.8409C93.0281 70.8939 92.9183 70.9432 92.763 70.9886C92.6115 71.0341 92.441 71.0739 92.2516 71.108C92.0622 71.142 91.8747 71.1723 91.6891 71.1989C91.5035 71.2254 91.3425 71.2481 91.2062 71.267C90.8993 71.3087 90.6247 71.3769 90.3823 71.4716C90.1399 71.5663 89.9486 71.6989 89.8084 71.8693C89.6683 72.036 89.5982 72.2519 89.5982 72.517C89.5982 72.8958 89.7365 73.1818 90.013 73.375C90.2895 73.5682 90.6418 73.6648 91.0698 73.6648ZM101.57 66.2727V67.8636H96.5528V66.2727H101.57ZM97.7914 64.1818H99.8482V72.375C99.8482 72.6515 99.8899 72.8636 99.9732 73.0114C100.06 73.1553 100.174 73.2538 100.314 73.3068C100.454 73.3598 100.61 73.3864 100.78 73.3864C100.909 73.3864 101.026 73.3769 101.132 73.358C101.242 73.339 101.325 73.322 101.382 73.3068L101.729 74.9148C101.619 74.9527 101.462 74.9943 101.257 75.0398C101.057 75.0852 100.81 75.1117 100.519 75.1193C100.004 75.1345 99.5395 75.0568 99.1266 74.8864C98.7137 74.7121 98.3861 74.4432 98.1437 74.0795C97.905 73.7159 97.7876 73.2614 97.7914 72.7159V64.1818ZM105.801 75.1761C105.248 75.1761 104.75 75.0777 104.307 74.8807C103.868 74.6799 103.519 74.3845 103.262 73.9943C103.008 73.6042 102.881 73.1231 102.881 72.5511C102.881 72.0587 102.972 71.6515 103.154 71.3295C103.335 71.0076 103.584 70.75 103.898 70.5568C104.212 70.3636 104.566 70.2178 104.96 70.1193C105.358 70.017 105.769 69.9432 106.193 69.8977C106.705 69.8447 107.12 69.7973 107.438 69.7557C107.756 69.7102 107.987 69.642 108.131 69.5511C108.279 69.4564 108.352 69.3106 108.352 69.1136V69.0795C108.352 68.6515 108.226 68.3201 107.972 68.0852C107.718 67.8504 107.352 67.733 106.875 67.733C106.371 67.733 105.972 67.8428 105.676 68.0625C105.385 68.2822 105.188 68.5417 105.085 68.8409L103.165 68.5682C103.316 68.0379 103.566 67.5947 103.915 67.2386C104.263 66.8788 104.69 66.6098 105.193 66.4318C105.697 66.25 106.254 66.1591 106.864 66.1591C107.284 66.1591 107.703 66.2083 108.12 66.3068C108.536 66.4053 108.917 66.5682 109.262 66.7955C109.606 67.0189 109.883 67.3239 110.091 67.7102C110.303 68.0966 110.409 68.5795 110.409 69.1591V75H108.432V73.8011H108.364C108.239 74.0436 108.063 74.2708 107.835 74.483C107.612 74.6913 107.33 74.8598 106.989 74.9886C106.652 75.1136 106.256 75.1761 105.801 75.1761ZM106.335 73.6648C106.748 73.6648 107.106 73.5833 107.409 73.4205C107.712 73.2538 107.945 73.0341 108.108 72.7614C108.275 72.4886 108.358 72.1913 108.358 71.8693V70.8409C108.294 70.8939 108.184 70.9432 108.029 70.9886C107.877 71.0341 107.707 71.0739 107.517 71.108C107.328 71.142 107.14 71.1723 106.955 71.1989C106.769 71.2254 106.608 71.2481 106.472 71.267C106.165 71.3087 105.89 71.3769 105.648 71.4716C105.406 71.5663 105.214 71.6989 105.074 71.8693C104.934 72.036 104.864 72.2519 104.864 72.517C104.864 72.8958 105.002 73.1818 105.279 73.375C105.555 73.5682 105.907 73.6648 106.335 73.6648ZM116.537 75V63.3636H118.645V68.2898H124.037V63.3636H126.151V75H124.037V70.0568H118.645V75H116.537ZM132.216 75.1705C131.341 75.1705 130.585 74.9886 129.949 74.625C129.316 74.2576 128.83 73.7386 128.489 73.0682C128.148 72.3939 127.977 71.6004 127.977 70.6875C127.977 69.7898 128.148 69.0019 128.489 68.3239C128.834 67.642 129.315 67.1117 129.932 66.733C130.549 66.3504 131.275 66.1591 132.108 66.1591C132.646 66.1591 133.154 66.2462 133.631 66.4205C134.112 66.5909 134.536 66.8561 134.904 67.2159C135.275 67.5758 135.566 68.0341 135.779 68.5909C135.991 69.1439 136.097 69.803 136.097 70.5682V71.1989H128.943V69.8125H134.125C134.121 69.4186 134.036 69.0682 133.87 68.7614C133.703 68.4508 133.47 68.2064 133.171 68.0284C132.875 67.8504 132.531 67.7614 132.137 67.7614C131.716 67.7614 131.347 67.8636 131.029 68.0682C130.71 68.2689 130.462 68.5341 130.284 68.8636C130.11 69.1894 130.021 69.5473 130.017 69.9375V71.1477C130.017 71.6553 130.11 72.0909 130.296 72.4545C130.481 72.8144 130.741 73.0909 131.074 73.2841C131.407 73.4735 131.798 73.5682 132.245 73.5682C132.544 73.5682 132.815 73.5265 133.057 73.4432C133.299 73.3561 133.51 73.2292 133.688 73.0625C133.866 72.8958 134 72.6894 134.091 72.4432L136.012 72.6591C135.89 73.1667 135.659 73.6098 135.318 73.9886C134.981 74.3636 134.549 74.6553 134.023 74.8636C133.496 75.0682 132.894 75.1705 132.216 75.1705ZM137.837 75V66.2727H139.831V67.7273H139.922C140.081 67.2235 140.354 66.8352 140.74 66.5625C141.13 66.286 141.575 66.1477 142.075 66.1477C142.189 66.1477 142.316 66.1534 142.456 66.1648C142.6 66.1723 142.719 66.1856 142.814 66.2045V68.0966C142.727 68.0663 142.589 68.0398 142.399 68.017C142.214 67.9905 142.034 67.9773 141.86 67.9773C141.485 67.9773 141.147 68.0587 140.848 68.2216C140.553 68.3807 140.32 68.6023 140.149 68.8864C139.979 69.1705 139.894 69.4981 139.894 69.8693V75H137.837ZM147.685 75.1705C146.81 75.1705 146.054 74.9886 145.418 74.625C144.785 74.2576 144.298 73.7386 143.958 73.0682C143.617 72.3939 143.446 71.6004 143.446 70.6875C143.446 69.7898 143.617 69.0019 143.958 68.3239C144.302 67.642 144.783 67.1117 145.401 66.733C146.018 66.3504 146.744 66.1591 147.577 66.1591C148.115 66.1591 148.622 66.2462 149.1 66.4205C149.581 66.5909 150.005 66.8561 150.372 67.2159C150.744 67.5758 151.035 68.0341 151.247 68.5909C151.459 69.1439 151.566 69.803 151.566 70.5682V71.1989H144.412V69.8125H149.594C149.59 69.4186 149.505 69.0682 149.338 68.7614C149.172 68.4508 148.939 68.2064 148.639 68.0284C148.344 67.8504 147.999 67.7614 147.605 67.7614C147.185 67.7614 146.816 67.8636 146.497 68.0682C146.179 68.2689 145.931 68.5341 145.753 68.8636C145.579 69.1894 145.49 69.5473 145.486 69.9375V71.1477C145.486 71.6553 145.579 72.0909 145.764 72.4545C145.95 72.8144 146.209 73.0909 146.543 73.2841C146.876 73.4735 147.266 73.5682 147.713 73.5682C148.013 73.5682 148.283 73.5265 148.526 73.4432C148.768 73.3561 148.978 73.2292 149.156 73.0625C149.334 72.8958 149.469 72.6894 149.56 72.4432L151.48 72.6591C151.359 73.1667 151.128 73.6098 150.787 73.9886C150.45 74.3636 150.018 74.6553 149.492 74.8636C148.965 75.0682 148.363 75.1705 147.685 75.1705Z" fill="#262626"/>
</g>
</svg>
