<svg width="32" height="32" viewBox="0 0 32 32" fill="none" xmlns="http://www.w3.org/2000/svg">
<rect width="32" height="32" rx="6.15111" fill="white"/>
<path d="M14.3317 9.88296C14.3317 9.42228 14.7051 9.04883 15.1658 9.04883H16.8341C17.2948 9.04883 17.6682 9.42228 17.6682 9.88296V13.3754L20.8278 11.5512C21.2267 11.3209 21.7369 11.4576 21.9672 11.8565L22.8013 13.3013C23.0317 13.7003 22.895 14.2104 22.496 14.4408L17.6752 17.224L19.0554 19.6145H22.1169C22.5776 19.6145 22.9511 19.988 22.9511 20.4487V22.1169C22.9511 22.5776 22.5776 22.9511 22.1169 22.9511H15.1658L15.1648 22.9511H9.88296C9.42228 22.9511 9.04883 22.5776 9.04883 22.1169L9.04883 20.4487C9.04883 19.988 9.42228 19.6145 9.88296 19.6145H12.875L14.2569 17.221L9.49317 14.4707C9.09421 14.2404 8.95751 13.7302 9.18785 13.3312L10.022 11.8865C10.2523 11.4875 10.7625 11.3508 11.1614 11.5812L14.3317 13.4115V9.88296Z" fill="#04DF1A"/>
</svg>
